<svg id="Layer_1" data-name="Layer 1" xmlns="http://www.w3.org/2000/svg" viewBox="0 0 202.52 163.78"><defs><style>.cls-1{fill:none;}</style></defs><rect class="cls-1" width="202.52" height="163.78"/><path d="M76.83,104.59C72,118.87,65.7,126.4,54,126.4c-9.9,0-14.84-.9-17.54-2.7V26.79c0-8,1.12-10.45,5.84-10.45,4,0,6.07,1.46,8.66,1.46,4.27,0,4.27-8.88-.11-8.88-5.29,0-12.82.56-26.08.56-7.42,0-16.31-.56-21.48-.56-4.61,0-4.16,8.88-.11,8.88,2,0,4.84-1.46,8.77-1.46,4.61,0,5.73,2.47,5.73,10.45v85.78c0,8-1.12,10.34-5.73,10.34-3.93,0-6.75-1.35-8.77-1.35-4,0-4.5,8.77.11,8.77,3.83,0,18.78-.67,51.49-.67,4.61,0,11.81.56,22.49.67a224.26,224.26,0,0,1,7-23.38c1.46-4.27-5.85-7-7.42-2.36M125.3,86.15c-1.68-16.41-25.07-69.81-11.47-69.81,4.16,0,7.54,1.46,9,1.46,5.06,0,3.71-8.88.11-8.88H97.63a2.41,2.41,0,0,0-2.31,2.49,3,3,0,0,0,.06.43l9.78,67.57c1.12,7.75-.56,12.92-5.85,12.92H82.67c-5.17,0-6.85-5.17-5.73-12.92l9.67-67.57A2.36,2.36,0,0,0,84.88,9a2.32,2.32,0,0,0-.52-.07h-25c-4.49,0-4.61,8.88-.11,8.88,1.35,0,4.72-1.46,8.88-1.46,13.94,0-9.55,52.39-11.35,69.81-.45,4.27,2.36,8.77,8.32,8.77H117c6.07,0,8.77-4.38,8.32-8.77m60.15,35.41c-1.8,0-5.51,1.35-9,1.35-2,0-2.24-1.8-2.47-3.82l-4.2-33.84c-2.25-18.1-.11-23.16,3.49-30,4.49-8.55,13.15-21.36,27.43-44.3,7.19-11.58-9.22-17.09-12.82-.56-2.59,11.8-13.6,30.91-21.81,44.07l-4.72-33.84c-.23-1.8-.34-4.27,1.46-4.27,3.6,0,7.53,1.46,9.33,1.46,6,0,5.85-8.88-.11-8.88-5.51,0-10.46.56-22.6.56-7.64,0-12-.56-17.65-.56-4.38,0-4.38,8.88.23,8.88,1.57,0,5.62-1.46,9.1-1.46,2,0,2.14,1.91,2.36,3.82l4.16,33.16c1.35,11-1.35,19.57-10.56,30.36-22.26,26.08-54.3,58.79-95.9,63.4-13,1.47-8.88,21.48,2.7,15.63,52.5-26.53,79.93-51,98.7-74.87,6-7.53,10.35-6.3,11.13,2.58l2.37,28.22c.11,1.91.33,4.27-1.24,4.27-3.6,0-5.51-1.35-9.67-1.35-4.61,0-4.61,8.77,0,8.77,6.52,0,10.79-2.13,16.75-2.13,13.27,0,18,2.13,23.5,2.13,4.49,0,4.49-8.77,0-8.77"/></svg>