<?xml version="1.0" encoding="utf-8"?>
<!-- Generator: Adobe Illustrator 25.4.1, SVG Export Plug-In . SVG Version: 6.00 Build 0)  -->
<svg version="1.1" id="Layer_1" xmlns="http://www.w3.org/2000/svg" xmlns:xlink="http://www.w3.org/1999/xlink" x="0px" y="0px"
	 viewBox="0 0 202.5 163.8" style="enable-background:new 0 0 202.5 163.8;" xml:space="preserve">
<style type="text/css">
	.st0{fill:none;}
</style>
<rect class="st0" width="202.5" height="163.8"/>
<g>
	<path d="M76.8,104.6C72,118.9,65.7,126.4,54,126.4c-9.9,0-14.8-0.9-17.5-2.7V26.8c0-8,1.1-10.5,5.8-10.5c4,0,6.1,1.5,8.7,1.5
		c4.3,0,4.3-8.9-0.1-8.9c-5.3,0-12.8,0.6-26.1,0.6c-7.4,0-16.3-0.6-21.5-0.6c-4.6,0-4.2,8.9-0.1,8.9c2,0,4.8-1.5,8.8-1.5
		c4.6,0,5.7,2.5,5.7,10.5v85.8c0,8-1.1,10.3-5.7,10.3c-3.9,0-6.8-1.3-8.8-1.3c-4,0-4.5,8.8,0.1,8.8c3.8,0,18.8-0.7,51.5-0.7
		c4.6,0,11.8,0.6,22.5,0.7c1.9-7.9,4.2-15.7,7-23.4C85.7,102.7,78.4,100,76.8,104.6 M125.3,86.2c-1.7-16.4-25.1-69.8-11.5-69.8
		c4.2,0,7.5,1.5,9,1.5c5.1,0,3.7-8.9,0.1-8.9H97.6c-1.3,0.1-2.4,1.2-2.3,2.5c0,0.1,0,0.3,0.1,0.4l9.8,67.6
		c1.1,7.8-0.6,12.9-5.8,12.9H82.7c-5.2,0-6.8-5.2-5.7-12.9l9.7-67.6c0.3-1.3-0.5-2.5-1.7-2.9c-0.2,0-0.3-0.1-0.5-0.1h-25
		c-4.5,0-4.6,8.9-0.1,8.9c1.3,0,4.7-1.5,8.9-1.5c13.9,0-9.5,52.4-11.3,69.8c-0.5,4.3,2.4,8.8,8.3,8.8H117
		C123.1,94.9,125.8,90.5,125.3,86.2 M185.5,121.6c-1.8,0-5.5,1.3-9,1.3c-2,0-2.2-1.8-2.5-3.8l-4.2-33.8c-2.2-18.1-0.1-23.2,3.5-30
		c4.5-8.5,13.1-21.4,27.4-44.3c7.2-11.6-9.2-17.1-12.8-0.6c-2.6,11.8-13.6,30.9-21.8,44.1l-4.7-33.8c-0.2-1.8-0.3-4.3,1.5-4.3
		c3.6,0,7.5,1.5,9.3,1.5c6,0,5.9-8.9-0.1-8.9c-5.5,0-10.5,0.6-22.6,0.6c-7.6,0-12-0.6-17.6-0.6c-4.4,0-4.4,8.9,0.2,8.9
		c1.6,0,5.6-1.5,9.1-1.5c2,0,2.1,1.9,2.4,3.8l4.2,33.2c1.4,11-1.4,19.6-10.6,30.4c-22.3,26.1-54.3,58.8-95.9,63.4
		c-13,1.5-8.9,21.5,2.7,15.6c52.5-26.5,79.9-51,98.7-74.9c6-7.5,10.4-6.3,11.1,2.6l2.4,28.2c0.1,1.9,0.3,4.3-1.2,4.3
		c-3.6,0-5.5-1.3-9.7-1.3c-4.6,0-4.6,8.8,0,8.8c6.5,0,10.8-2.1,16.8-2.1c13.3,0,18,2.1,23.5,2.1
		C189.9,130.3,189.9,121.6,185.5,121.6"/>
</g>
</svg>
